<?xml version="1.0" encoding="UTF-8"?>
<svg xmlns="http://www.w3.org/2000/svg" xmlns:xlink="http://www.w3.org/1999/xlink" width="600pt" height="450pt" viewBox="0 0 600 450" version="1.1">
<defs>
<g>
<symbol overflow="visible" id="HBD+idQM0-0">
<path style="stroke:none;" d="M 0.59375 2.125 L 0.59375 -8.46875 L 6.59375 -8.46875 L 6.59375 2.125 Z M 1.265625 1.453125 L 5.9375 1.453125 L 5.9375 -7.78125 L 1.265625 -7.78125 Z M 1.265625 1.453125 "/>
</symbol>
<symbol overflow="visible" id="HBD+idQM0-1">
<path style="stroke:none;" d="M 0.59375 -3.765625 L 3.75 -3.765625 L 3.75 -2.8125 L 0.59375 -2.8125 Z M 0.59375 -3.765625 "/>
</symbol>
<symbol overflow="visible" id="HBD+idQM1-0">
<path style="stroke:none;" d="M 0.59375 2.125 L 0.59375 -8.46875 L 6.59375 -8.46875 L 6.59375 2.125 Z M 1.265625 1.453125 L 5.9375 1.453125 L 5.9375 -7.78125 L 1.265625 -7.78125 Z M 1.265625 1.453125 "/>
</symbol>
<symbol overflow="visible" id="HBD+idQM1-1">
<path style="stroke:none;" d="M 2.296875 -1 L 6.4375 -1 L 6.4375 0 L 0.875 0 L 0.875 -1 C 1.320312 -1.457031 1.929688 -2.078125 2.703125 -2.859375 C 3.484375 -3.648438 3.972656 -4.160156 4.171875 -4.390625 C 4.554688 -4.804688 4.820312 -5.160156 4.96875 -5.453125 C 5.125 -5.753906 5.203125 -6.046875 5.203125 -6.328125 C 5.203125 -6.796875 5.035156 -7.175781 4.703125 -7.46875 C 4.378906 -7.757812 3.957031 -7.90625 3.4375 -7.90625 C 3.0625 -7.90625 2.664062 -7.84375 2.25 -7.71875 C 1.84375 -7.59375 1.40625 -7.394531 0.9375 -7.125 L 0.9375 -8.328125 C 1.414062 -8.515625 1.859375 -8.65625 2.265625 -8.75 C 2.679688 -8.851562 3.0625 -8.90625 3.40625 -8.90625 C 4.3125 -8.90625 5.035156 -8.675781 5.578125 -8.21875 C 6.117188 -7.769531 6.390625 -7.164062 6.390625 -6.40625 C 6.390625 -6.050781 6.320312 -5.710938 6.1875 -5.390625 C 6.050781 -5.066406 5.804688 -4.6875 5.453125 -4.25 C 5.347656 -4.132812 5.035156 -3.804688 4.515625 -3.265625 C 3.992188 -2.722656 3.253906 -1.96875 2.296875 -1 Z M 2.296875 -1 "/>
</symbol>
<symbol overflow="visible" id="HBD+idQM1-2">
<path style="stroke:none;" d="M 1.484375 -1 L 3.421875 -1 L 3.421875 -7.671875 L 1.3125 -7.25 L 1.3125 -8.328125 L 3.40625 -8.75 L 4.59375 -8.75 L 4.59375 -1 L 6.53125 -1 L 6.53125 0 L 1.484375 0 Z M 1.484375 -1 "/>
</symbol>
<symbol overflow="visible" id="HBD+idQM2-0">
<path style="stroke:none;" d="M 0.59375 2.125 L 0.59375 -8.46875 L 6.59375 -8.46875 L 6.59375 2.125 Z M 1.265625 1.453125 L 5.9375 1.453125 L 5.9375 -7.78125 L 1.265625 -7.78125 Z M 1.265625 1.453125 "/>
</symbol>
<symbol overflow="visible" id="HBD+idQM2-1">
<path style="stroke:none;" d="M 0.59375 -3.765625 L 3.75 -3.765625 L 3.75 -2.8125 L 0.59375 -2.8125 Z M 0.59375 -3.765625 "/>
</symbol>
<symbol overflow="visible" id="HBD+idQM3-0">
<path style="stroke:none;" d="M 0.59375 2.125 L 0.59375 -8.46875 L 6.59375 -8.46875 L 6.59375 2.125 Z M 1.265625 1.453125 L 5.9375 1.453125 L 5.9375 -7.78125 L 1.265625 -7.78125 Z M 1.265625 1.453125 "/>
</symbol>
<symbol overflow="visible" id="HBD+idQM3-1">
<path style="stroke:none;" d="M 3.8125 -7.96875 C 3.207031 -7.96875 2.75 -7.664062 2.4375 -7.0625 C 2.132812 -6.46875 1.984375 -5.566406 1.984375 -4.359375 C 1.984375 -3.160156 2.132812 -2.257812 2.4375 -1.65625 C 2.75 -1.0625 3.207031 -0.765625 3.8125 -0.765625 C 4.425781 -0.765625 4.882812 -1.0625 5.1875 -1.65625 C 5.5 -2.257812 5.65625 -3.160156 5.65625 -4.359375 C 5.65625 -5.566406 5.5 -6.46875 5.1875 -7.0625 C 4.882812 -7.664062 4.425781 -7.96875 3.8125 -7.96875 Z M 3.8125 -8.90625 C 4.789062 -8.90625 5.539062 -8.515625 6.0625 -7.734375 C 6.582031 -6.960938 6.84375 -5.835938 6.84375 -4.359375 C 6.84375 -2.890625 6.582031 -1.765625 6.0625 -0.984375 C 5.539062 -0.210938 4.789062 0.171875 3.8125 0.171875 C 2.832031 0.171875 2.082031 -0.210938 1.5625 -0.984375 C 1.050781 -1.765625 0.796875 -2.890625 0.796875 -4.359375 C 0.796875 -5.835938 1.050781 -6.960938 1.5625 -7.734375 C 2.082031 -8.515625 2.832031 -8.90625 3.8125 -8.90625 Z M 3.8125 -8.90625 "/>
</symbol>
<symbol overflow="visible" id="HBD+idQM3-2">
<path style="stroke:none;" d="M 1.484375 -1 L 3.421875 -1 L 3.421875 -7.671875 L 1.3125 -7.25 L 1.3125 -8.328125 L 3.40625 -8.75 L 4.59375 -8.75 L 4.59375 -1 L 6.53125 -1 L 6.53125 0 L 1.484375 0 Z M 1.484375 -1 "/>
</symbol>
<symbol overflow="visible" id="HBD+idQM3-3">
<path style="stroke:none;" d="M 2.296875 -1 L 6.4375 -1 L 6.4375 0 L 0.875 0 L 0.875 -1 C 1.320312 -1.457031 1.929688 -2.078125 2.703125 -2.859375 C 3.484375 -3.648438 3.972656 -4.160156 4.171875 -4.390625 C 4.554688 -4.804688 4.820312 -5.160156 4.96875 -5.453125 C 5.125 -5.753906 5.203125 -6.046875 5.203125 -6.328125 C 5.203125 -6.796875 5.035156 -7.175781 4.703125 -7.46875 C 4.378906 -7.757812 3.957031 -7.90625 3.4375 -7.90625 C 3.0625 -7.90625 2.664062 -7.84375 2.25 -7.71875 C 1.84375 -7.59375 1.40625 -7.394531 0.9375 -7.125 L 0.9375 -8.328125 C 1.414062 -8.515625 1.859375 -8.65625 2.265625 -8.75 C 2.679688 -8.851562 3.0625 -8.90625 3.40625 -8.90625 C 4.3125 -8.90625 5.035156 -8.675781 5.578125 -8.21875 C 6.117188 -7.769531 6.390625 -7.164062 6.390625 -6.40625 C 6.390625 -6.050781 6.320312 -5.710938 6.1875 -5.390625 C 6.050781 -5.066406 5.804688 -4.6875 5.453125 -4.25 C 5.347656 -4.132812 5.035156 -3.804688 4.515625 -3.265625 C 3.992188 -2.722656 3.253906 -1.96875 2.296875 -1 Z M 2.296875 -1 "/>
</symbol>
<symbol overflow="visible" id="HBD+idQM4-0">
<path style="stroke:none;" d="M 0.59375 2.125 L 0.59375 -8.46875 L 6.59375 -8.46875 L 6.59375 2.125 Z M 1.265625 1.453125 L 5.9375 1.453125 L 5.9375 -7.78125 L 1.265625 -7.78125 Z M 1.265625 1.453125 "/>
</symbol>
<symbol overflow="visible" id="HBD+idQM4-1">
<path style="stroke:none;" d="M 3.8125 -7.96875 C 3.207031 -7.96875 2.75 -7.664062 2.4375 -7.0625 C 2.132812 -6.46875 1.984375 -5.566406 1.984375 -4.359375 C 1.984375 -3.160156 2.132812 -2.257812 2.4375 -1.65625 C 2.75 -1.0625 3.207031 -0.765625 3.8125 -0.765625 C 4.425781 -0.765625 4.882812 -1.0625 5.1875 -1.65625 C 5.5 -2.257812 5.65625 -3.160156 5.65625 -4.359375 C 5.65625 -5.566406 5.5 -6.46875 5.1875 -7.0625 C 4.882812 -7.664062 4.425781 -7.96875 3.8125 -7.96875 Z M 3.8125 -8.90625 C 4.789062 -8.90625 5.539062 -8.515625 6.0625 -7.734375 C 6.582031 -6.960938 6.84375 -5.835938 6.84375 -4.359375 C 6.84375 -2.890625 6.582031 -1.765625 6.0625 -0.984375 C 5.539062 -0.210938 4.789062 0.171875 3.8125 0.171875 C 2.832031 0.171875 2.082031 -0.210938 1.5625 -0.984375 C 1.050781 -1.765625 0.796875 -2.890625 0.796875 -4.359375 C 0.796875 -5.835938 1.050781 -6.960938 1.5625 -7.734375 C 2.082031 -8.515625 2.832031 -8.90625 3.8125 -8.90625 Z M 3.8125 -8.90625 "/>
</symbol>
<symbol overflow="visible" id="HBD+idQM5-0">
<path style="stroke:none;" d="M 0.59375 2.125 L 0.59375 -8.46875 L 6.59375 -8.46875 L 6.59375 2.125 Z M 1.265625 1.453125 L 5.9375 1.453125 L 5.9375 -7.78125 L 1.265625 -7.78125 Z M 1.265625 1.453125 "/>
</symbol>
<symbol overflow="visible" id="HBD+idQM5-1">
<path style="stroke:none;" d="M 1.484375 -1 L 3.421875 -1 L 3.421875 -7.671875 L 1.3125 -7.25 L 1.3125 -8.328125 L 3.40625 -8.75 L 4.59375 -8.75 L 4.59375 -1 L 6.53125 -1 L 6.53125 0 L 1.484375 0 Z M 1.484375 -1 "/>
</symbol>
<symbol overflow="visible" id="HBD+idQM5-2">
<path style="stroke:none;" d="M 2.296875 -1 L 6.4375 -1 L 6.4375 0 L 0.875 0 L 0.875 -1 C 1.320312 -1.457031 1.929688 -2.078125 2.703125 -2.859375 C 3.484375 -3.648438 3.972656 -4.160156 4.171875 -4.390625 C 4.554688 -4.804688 4.820312 -5.160156 4.96875 -5.453125 C 5.125 -5.753906 5.203125 -6.046875 5.203125 -6.328125 C 5.203125 -6.796875 5.035156 -7.175781 4.703125 -7.46875 C 4.378906 -7.757812 3.957031 -7.90625 3.4375 -7.90625 C 3.0625 -7.90625 2.664062 -7.84375 2.25 -7.71875 C 1.84375 -7.59375 1.40625 -7.394531 0.9375 -7.125 L 0.9375 -8.328125 C 1.414062 -8.515625 1.859375 -8.65625 2.265625 -8.75 C 2.679688 -8.851562 3.0625 -8.90625 3.40625 -8.90625 C 4.3125 -8.90625 5.035156 -8.675781 5.578125 -8.21875 C 6.117188 -7.769531 6.390625 -7.164062 6.390625 -6.40625 C 6.390625 -6.050781 6.320312 -5.710938 6.1875 -5.390625 C 6.050781 -5.066406 5.804688 -4.6875 5.453125 -4.25 C 5.347656 -4.132812 5.035156 -3.804688 4.515625 -3.265625 C 3.992188 -2.722656 3.253906 -1.96875 2.296875 -1 Z M 2.296875 -1 "/>
</symbol>
<symbol overflow="visible" id="HBD+idQM6-0">
<path style="stroke:none;" d=""/>
</symbol>
<symbol overflow="visible" id="HBD+idQM6-1">
<path style="stroke:none;" d="M 5.859375 -1.71875 C 5.859375 -1.84375 5.765625 -1.84375 5.671875 -1.84375 C 5.53125 -1.84375 5.515625 -1.828125 5.453125 -1.625 C 5.140625 -0.59375 4.53125 -0.125 4.03125 -0.125 C 3.796875 -0.125 3.46875 -0.28125 3.46875 -0.90625 C 3.46875 -1.1875 3.59375 -1.703125 3.703125 -2.109375 L 4.109375 -3.75 C 4.265625 -4.375 4.59375 -5.046875 5.15625 -5.046875 C 5.203125 -5.046875 5.5 -5.046875 5.6875 -4.875 C 5.203125 -4.75 5.203125 -4.296875 5.203125 -4.296875 C 5.203125 -4.140625 5.3125 -3.90625 5.625 -3.90625 C 5.84375 -3.90625 6.21875 -4.078125 6.21875 -4.546875 C 6.21875 -5.15625 5.515625 -5.296875 5.171875 -5.296875 C 4.515625 -5.296875 4.109375 -4.71875 4 -4.484375 C 3.734375 -5.203125 3.140625 -5.296875 2.84375 -5.296875 C 1.640625 -5.296875 1 -3.734375 1 -3.453125 C 1 -3.34375 1.109375 -3.34375 1.171875 -3.34375 C 1.328125 -3.34375 1.328125 -3.34375 1.390625 -3.546875 C 1.71875 -4.578125 2.34375 -5.046875 2.8125 -5.046875 C 3.171875 -5.046875 3.390625 -4.765625 3.390625 -4.28125 C 3.390625 -4 3.25 -3.40625 3.140625 -2.96875 L 2.875 -1.875 C 2.671875 -1.09375 2.421875 -0.125 1.703125 -0.125 C 1.671875 -0.125 1.375 -0.125 1.171875 -0.296875 C 1.53125 -0.390625 1.640625 -0.703125 1.640625 -0.875 C 1.640625 -1.1875 1.390625 -1.265625 1.234375 -1.265625 C 0.9375 -1.265625 0.640625 -1.015625 0.640625 -0.609375 C 0.640625 -0.140625 1.140625 0.125 1.6875 0.125 C 2.265625 0.125 2.65625 -0.328125 2.875 -0.6875 C 3.109375 0 3.703125 0.125 4.015625 0.125 C 5.25 0.125 5.859375 -1.46875 5.859375 -1.71875 Z M 5.859375 -1.71875 "/>
</symbol>
<symbol overflow="visible" id="HBD+idQM7-0">
<path style="stroke:none;" d=""/>
</symbol>
<symbol overflow="visible" id="HBD+idQM7-1">
<path style="stroke:none;" d="M 8.65625 -3 C 8.65625 -3.125 8.5625 -3.234375 8.421875 -3.234375 L 4.90625 -3.234375 L 4.90625 -6.75 C 4.90625 -6.890625 4.796875 -7 4.671875 -7 C 4.53125 -7 4.421875 -6.890625 4.421875 -6.75 L 4.421875 -3.234375 L 0.90625 -3.234375 C 0.78125 -3.234375 0.671875 -3.125 0.671875 -3 C 0.671875 -2.875 0.78125 -2.765625 0.90625 -2.765625 L 4.421875 -2.765625 L 4.421875 0.75 C 4.421875 0.890625 4.53125 1 4.671875 1 C 4.796875 1 4.90625 0.890625 4.90625 0.75 L 4.90625 -2.765625 L 8.421875 -2.765625 C 8.5625 -2.765625 8.65625 -2.875 8.65625 -3 Z M 8.65625 -3 "/>
</symbol>
<symbol overflow="visible" id="HBD+idQM8-0">
<path style="stroke:none;" d=""/>
</symbol>
<symbol overflow="visible" id="HBD+idQM8-1">
<path style="stroke:none;" d="M 4.984375 0.03125 L 6.15625 -4.6875 C 6.171875 -4.765625 6.1875 -4.828125 6.1875 -4.859375 C 6.1875 -4.984375 6.09375 -5.171875 5.859375 -5.171875 C 5.5 -5.171875 5.40625 -4.828125 5.390625 -4.734375 L 4.515625 -1.203125 C 4.421875 -0.859375 3.953125 -0.125 3.234375 -0.125 C 2.703125 -0.125 2.59375 -0.65625 2.59375 -1.0625 C 2.59375 -1.78125 2.984375 -2.875 3.28125 -3.6875 C 3.390625 -3.9375 3.4375 -4.109375 3.4375 -4.328125 C 3.4375 -4.9375 3.046875 -5.296875 2.53125 -5.296875 C 1.421875 -5.296875 1 -3.53125 1 -3.453125 C 1 -3.34375 1.109375 -3.34375 1.171875 -3.34375 C 1.328125 -3.34375 1.34375 -3.359375 1.390625 -3.53125 C 1.484375 -3.90625 1.8125 -5.046875 2.515625 -5.046875 C 2.640625 -5.046875 2.765625 -5 2.765625 -4.6875 C 2.765625 -4.40625 2.65625 -4.078125 2.484375 -3.609375 C 2.171875 -2.765625 1.859375 -1.890625 1.859375 -1.265625 C 1.859375 -0.21875 2.5625 0.125 3.203125 0.125 C 3.75 0.125 4.125 -0.15625 4.28125 -0.3125 C 3.828125 1.671875 2.9375 2.203125 2.34375 2.203125 C 1.765625 2.203125 1.59375 1.734375 1.59375 1.6875 C 1.59375 1.6875 1.609375 1.65625 1.6875 1.640625 C 2.0625 1.578125 2.203125 1.265625 2.203125 1.0625 C 2.203125 0.8125 2.015625 0.6875 1.796875 0.6875 C 1.65625 0.6875 1.1875 0.75 1.1875 1.421875 C 1.1875 2.046875 1.6875 2.453125 2.34375 2.453125 C 3.59375 2.453125 4.6875 1.21875 4.984375 0.03125 Z M 4.984375 0.03125 "/>
</symbol>
<symbol overflow="visible" id="HBD+idQM9-0">
<path style="stroke:none;" d="M 0.59375 0 L 5.40625 0 L 5.40625 -6.4375 L 0.59375 -6.4375 Z M 1.203125 -0.59375 L 1.203125 -5.84375 L 4.796875 -5.84375 L 4.796875 -0.59375 Z M 1.203125 -0.59375 "/>
</symbol>
<symbol overflow="visible" id="HBD+idQM9-1">
<path style="stroke:none;" d="M 4.3125 -1.53125 C 4.3125 -2.171875 3.953125 -2.53125 3.8125 -2.671875 C 3.421875 -3.0625 2.953125 -3.15625 2.453125 -3.25 C 1.78125 -3.390625 0.96875 -3.546875 0.96875 -4.234375 C 0.96875 -4.65625 1.28125 -5.140625 2.3125 -5.140625 C 3.640625 -5.140625 3.703125 -4.0625 3.71875 -3.703125 C 3.734375 -3.59375 3.859375 -3.59375 3.859375 -3.59375 C 4.015625 -3.59375 4.015625 -3.640625 4.015625 -3.875 L 4.015625 -5.09375 C 4.015625 -5.296875 4.015625 -5.375 3.890625 -5.375 C 3.828125 -5.375 3.796875 -5.375 3.640625 -5.234375 C 3.609375 -5.1875 3.484375 -5.078125 3.4375 -5.046875 C 2.984375 -5.375 2.5 -5.375 2.3125 -5.375 C 0.859375 -5.375 0.390625 -4.578125 0.390625 -3.90625 C 0.390625 -3.484375 0.59375 -3.140625 0.90625 -2.875 C 1.296875 -2.5625 1.625 -2.5 2.5 -2.328125 C 2.765625 -2.28125 3.75 -2.09375 3.75 -1.21875 C 3.75 -0.609375 3.328125 -0.125 2.390625 -0.125 C 1.375 -0.125 0.953125 -0.8125 0.71875 -1.84375 C 0.6875 -1.984375 0.671875 -2.046875 0.546875 -2.046875 C 0.390625 -2.046875 0.390625 -1.953125 0.390625 -1.734375 L 0.390625 -0.15625 C 0.390625 0.046875 0.390625 0.125 0.53125 0.125 C 0.59375 0.125 0.59375 0.125 0.828125 -0.109375 C 0.859375 -0.125 0.859375 -0.15625 1.0625 -0.390625 C 1.59375 0.125 2.140625 0.125 2.390625 0.125 C 3.765625 0.125 4.3125 -0.671875 4.3125 -1.53125 Z M 4.3125 -1.53125 "/>
</symbol>
<symbol overflow="visible" id="HBD+idQM9-2">
<path style="stroke:none;" d="M 2.96875 0 L 2.96875 -0.375 C 2.171875 -0.375 2.125 -0.4375 2.125 -0.90625 L 2.125 -5.296875 L 0.4375 -5.171875 L 0.4375 -4.796875 C 1.21875 -4.796875 1.328125 -4.734375 1.328125 -4.140625 L 1.328125 -0.90625 C 1.328125 -0.375 1.203125 -0.375 0.390625 -0.375 L 0.390625 0 L 1.71875 -0.03125 C 2.140625 -0.03125 2.5625 -0.015625 2.96875 0 Z M 2.296875 -7.25 C 2.296875 -7.578125 2.03125 -7.890625 1.671875 -7.890625 C 1.265625 -7.890625 1.015625 -7.546875 1.015625 -7.25 C 1.015625 -6.921875 1.296875 -6.609375 1.65625 -6.609375 C 2.0625 -6.609375 2.296875 -6.953125 2.296875 -7.25 Z M 2.296875 -7.25 "/>
</symbol>
<symbol overflow="visible" id="HBD+idQM9-3">
<path style="stroke:none;" d="M 3.96875 2.875 C 3.96875 2.84375 3.96875 2.8125 3.765625 2.609375 C 2.265625 1.109375 1.890625 -1.15625 1.890625 -3 C 1.890625 -5.09375 2.34375 -7.171875 3.8125 -8.671875 C 3.96875 -8.8125 3.96875 -8.84375 3.96875 -8.875 C 3.96875 -8.96875 3.921875 -9 3.859375 -9 C 3.734375 -9 2.65625 -8.1875 1.9375 -6.65625 C 1.328125 -5.34375 1.1875 -4.015625 1.1875 -3 C 1.1875 -2.0625 1.3125 -0.609375 1.984375 0.75 C 2.703125 2.21875 3.734375 3 3.859375 3 C 3.921875 3 3.96875 2.96875 3.96875 2.875 Z M 3.96875 2.875 "/>
</symbol>
<symbol overflow="visible" id="HBD+idQM10-0">
<path style="stroke:none;" d="M 0.59375 0 L 5.40625 0 L 5.40625 -6.4375 L 0.59375 -6.4375 Z M 1.203125 -0.59375 L 1.203125 -5.84375 L 4.796875 -5.84375 L 4.796875 -0.59375 Z M 1.203125 -0.59375 "/>
</symbol>
<symbol overflow="visible" id="HBD+idQM10-1">
<path style="stroke:none;" d="M 6.421875 0 L 6.421875 -0.375 C 5.796875 -0.375 5.5 -0.375 5.484375 -0.734375 L 5.484375 -3.03125 C 5.484375 -4.0625 5.484375 -4.421875 5.109375 -4.859375 C 4.9375 -5.0625 4.546875 -5.296875 3.859375 -5.296875 C 2.96875 -5.296875 2.40625 -4.78125 2.078125 -4.046875 L 2.078125 -5.296875 L 0.390625 -5.171875 L 0.390625 -4.796875 C 1.21875 -4.796875 1.3125 -4.71875 1.3125 -4.125 L 1.3125 -0.90625 C 1.3125 -0.375 1.1875 -0.375 0.390625 -0.375 L 0.390625 0 L 1.734375 -0.03125 L 3.078125 0 L 3.078125 -0.375 C 2.28125 -0.375 2.140625 -0.375 2.140625 -0.90625 L 2.140625 -3.125 C 2.140625 -4.375 3 -5.046875 3.765625 -5.046875 C 4.53125 -5.046875 4.65625 -4.390625 4.65625 -3.703125 L 4.65625 -0.90625 C 4.65625 -0.375 4.53125 -0.375 3.71875 -0.375 L 3.71875 0 L 5.078125 -0.03125 Z M 6.421875 0 "/>
</symbol>
<symbol overflow="visible" id="HBD+idQM10-2">
<path style="stroke:none;" d="M 3.46875 -3 C 3.46875 -3.9375 3.34375 -5.390625 2.671875 -6.75 C 1.953125 -8.21875 0.921875 -9 0.796875 -9 C 0.734375 -9 0.6875 -8.953125 0.6875 -8.875 C 0.6875 -8.84375 0.6875 -8.8125 0.90625 -8.609375 C 2.09375 -7.421875 2.765625 -5.515625 2.765625 -3 C 2.765625 -0.953125 2.328125 1.15625 0.84375 2.671875 C 0.6875 2.8125 0.6875 2.84375 0.6875 2.875 C 0.6875 2.953125 0.734375 3 0.796875 3 C 0.921875 3 2 2.1875 2.71875 0.65625 C 3.328125 -0.65625 3.46875 -1.984375 3.46875 -3 Z M 3.46875 -3 "/>
</symbol>
<symbol overflow="visible" id="HBD+idQM11-0">
<path style="stroke:none;" d=""/>
</symbol>
<symbol overflow="visible" id="HBD+idQM11-1">
<path style="stroke:none;" d="M 5.8125 -1.71875 C 5.8125 -1.84375 5.71875 -1.84375 5.625 -1.84375 C 5.484375 -1.84375 5.46875 -1.828125 5.40625 -1.5625 C 5.25 -0.953125 5.015625 -0.125 4.484375 -0.125 C 4.15625 -0.125 4.140625 -0.40625 4.140625 -0.640625 C 4.140625 -0.921875 4.21875 -1.265625 4.234375 -1.3125 C 4.296875 -1.578125 4.296875 -1.578125 4.296875 -1.734375 C 4.296875 -2.5625 3.453125 -2.875 2.703125 -2.984375 C 2.96875 -3.15625 3.234375 -3.40625 3.546875 -3.78125 C 4.171875 -4.484375 4.640625 -5.046875 5.25 -5.046875 C 5.46875 -5.046875 5.5625 -4.890625 5.5625 -4.890625 C 5.0625 -4.8125 5 -4.390625 5 -4.296875 C 5 -4.140625 5.109375 -3.90625 5.421875 -3.90625 C 5.6875 -3.90625 6.03125 -4.125 6.03125 -4.578125 C 6.03125 -4.890625 5.8125 -5.296875 5.265625 -5.296875 C 4.625 -5.296875 4.109375 -4.796875 3.703125 -4.3125 C 3.03125 -3.53125 2.828125 -3.34375 2.40625 -3.125 L 3.640625 -8.03125 C 3.640625 -8.0625 3.671875 -8.1875 3.671875 -8.1875 C 3.671875 -8.296875 3.59375 -8.328125 3.5 -8.328125 C 3.46875 -8.328125 3.34375 -8.3125 3.3125 -8.296875 L 2.125 -8.203125 C 1.984375 -8.203125 1.84375 -8.1875 1.84375 -7.953125 C 1.84375 -7.828125 1.96875 -7.828125 2.140625 -7.828125 C 2.71875 -7.828125 2.734375 -7.734375 2.734375 -7.625 C 2.734375 -7.578125 2.703125 -7.421875 2.703125 -7.421875 L 0.921875 -0.34375 C 0.90625 -0.3125 0.90625 -0.1875 0.90625 -0.1875 C 0.90625 -0.046875 1.015625 0.125 1.234375 0.125 C 1.59375 0.125 1.6875 -0.203125 1.703125 -0.3125 L 2.3125 -2.75 C 2.765625 -2.6875 3.53125 -2.4375 3.53125 -1.734375 C 3.53125 -1.65625 3.53125 -1.609375 3.484375 -1.4375 C 3.4375 -1.234375 3.4375 -1.15625 3.4375 -1.03125 C 3.4375 -0.171875 4.015625 0.125 4.453125 0.125 C 4.984375 0.125 5.25 -0.265625 5.375 -0.484375 C 5.640625 -0.953125 5.8125 -1.6875 5.8125 -1.71875 Z M 5.8125 -1.71875 "/>
</symbol>
<symbol overflow="visible" id="HBD+idQM12-0">
<path style="stroke:none;" d="M 0.359375 0 L 3.234375 0 L 3.234375 -3.875 L 0.359375 -3.875 Z M 0.71875 -0.359375 L 0.71875 -3.515625 L 2.875 -3.515625 L 2.875 -0.359375 Z M 0.71875 -0.359375 "/>
</symbol>
<symbol overflow="visible" id="HBD+idQM12-1">
<path style="stroke:none;" d="M 3.234375 -1.25 L 3.046875 -1.25 C 3.015625 -1.03125 2.96875 -0.71875 2.890625 -0.609375 C 2.84375 -0.546875 2.375 -0.546875 2.21875 -0.546875 L 0.921875 -0.546875 L 1.671875 -1.296875 C 2.796875 -2.296875 3.234375 -2.671875 3.234375 -3.40625 C 3.234375 -4.21875 2.578125 -4.796875 1.703125 -4.796875 C 0.890625 -4.796875 0.359375 -4.140625 0.359375 -3.5 C 0.359375 -3.09375 0.71875 -3.09375 0.734375 -3.09375 C 0.859375 -3.09375 1.109375 -3.171875 1.109375 -3.46875 C 1.109375 -3.65625 0.984375 -3.84375 0.734375 -3.84375 C 0.671875 -3.84375 0.65625 -3.84375 0.640625 -3.84375 C 0.8125 -4.3125 1.203125 -4.578125 1.609375 -4.578125 C 2.265625 -4.578125 2.578125 -3.984375 2.578125 -3.40625 C 2.578125 -2.828125 2.21875 -2.25 1.828125 -1.8125 L 0.4375 -0.265625 C 0.359375 -0.1875 0.359375 -0.171875 0.359375 0 L 3.03125 0 Z M 3.234375 -1.25 "/>
</symbol>
</g>
</defs>
<g id="surface1">
<rect x="0" y="0" width="600" height="450" style="fill:rgb(100%,100%,100%);fill-opacity:1;stroke:none;"/>
<path style=" stroke:none;fill-rule:nonzero;fill:rgb(100%,100%,100%);fill-opacity:1;" d="M 30 417.75 L 588 417.75 L 588 51.75 L 30 51.75 Z M 30 417.75 "/>
<path style="fill:none;stroke-width:1;stroke-linecap:butt;stroke-linejoin:miter;stroke:rgb(0%,0%,0%);stroke-opacity:0.12;stroke-miterlimit:10;" d="M 40.96875 557 L 40.96875 69 " transform="matrix(0.75,0,0,0.75,0,0)"/>
<path style="fill:none;stroke-width:1;stroke-linecap:butt;stroke-linejoin:miter;stroke:rgb(0%,0%,0%);stroke-opacity:0.12;stroke-miterlimit:10;" d="M 201.651042 557 L 201.651042 69 " transform="matrix(0.75,0,0,0.75,0,0)"/>
<path style="fill:none;stroke-width:1;stroke-linecap:butt;stroke-linejoin:miter;stroke:rgb(0%,0%,0%);stroke-opacity:0.12;stroke-miterlimit:10;" d="M 362.333333 557 L 362.333333 69 " transform="matrix(0.75,0,0,0.75,0,0)"/>
<path style="fill:none;stroke-width:1;stroke-linecap:butt;stroke-linejoin:miter;stroke:rgb(0%,0%,0%);stroke-opacity:0.12;stroke-miterlimit:10;" d="M 523.015625 557 L 523.015625 69 " transform="matrix(0.75,0,0,0.75,0,0)"/>
<path style="fill:none;stroke-width:1;stroke-linecap:butt;stroke-linejoin:miter;stroke:rgb(0%,0%,0%);stroke-opacity:0.12;stroke-miterlimit:10;" d="M 683.697917 557 L 683.697917 69 " transform="matrix(0.75,0,0,0.75,0,0)"/>
<path style="fill:none;stroke-width:1;stroke-linecap:butt;stroke-linejoin:miter;stroke:rgb(0%,0%,0%);stroke-opacity:0.12;stroke-miterlimit:10;" d="M 40 446.979167 L 784 446.979167 " transform="matrix(0.75,0,0,0.75,0,0)"/>
<path style="fill:none;stroke-width:1;stroke-linecap:butt;stroke-linejoin:miter;stroke:rgb(0%,0%,0%);stroke-opacity:0.12;stroke-miterlimit:10;" d="M 40 333.510417 L 784 333.510417 " transform="matrix(0.75,0,0,0.75,0,0)"/>
<path style="fill:none;stroke-width:1;stroke-linecap:butt;stroke-linejoin:miter;stroke:rgb(0%,0%,0%);stroke-opacity:0.12;stroke-miterlimit:10;" d="M 40 220.041667 L 784 220.041667 " transform="matrix(0.75,0,0,0.75,0,0)"/>
<path style="fill:none;stroke-width:1;stroke-linecap:butt;stroke-linejoin:miter;stroke:rgb(0%,0%,0%);stroke-opacity:0.12;stroke-miterlimit:10;" d="M 40 106.567708 L 784 106.567708 " transform="matrix(0.75,0,0,0.75,0,0)"/>
<g style="fill:rgb(0%,0%,0%);fill-opacity:1;">
  <use xlink:href="#HBD+idQM0-1" x="25.492187" y="435.640625"/>
</g>
<g style="fill:rgb(0%,0%,0%);fill-opacity:1;">
  <use xlink:href="#HBD+idQM1-1" x="29.820312" y="435.640625"/>
</g>
<g style="fill:rgb(0%,0%,0%);fill-opacity:1;">
  <use xlink:href="#HBD+idQM2-1" x="146.175781" y="435.640625"/>
</g>
<g style="fill:rgb(0%,0%,0%);fill-opacity:1;">
  <use xlink:href="#HBD+idQM1-2" x="150.507812" y="435.640625"/>
</g>
<g style="fill:rgb(0%,0%,0%);fill-opacity:1;">
  <use xlink:href="#HBD+idQM3-1" x="268.332031" y="435.640625"/>
</g>
<g style="fill:rgb(0%,0%,0%);fill-opacity:1;">
  <use xlink:href="#HBD+idQM3-2" x="389" y="435.640625"/>
</g>
<g style="fill:rgb(0%,0%,0%);fill-opacity:1;">
  <use xlink:href="#HBD+idQM3-3" x="509.558594" y="435.640625"/>
</g>
<g style="fill:rgb(0%,0%,0%);fill-opacity:1;">
  <use xlink:href="#HBD+idQM0-1" x="12.210938" y="339.390625"/>
</g>
<g style="fill:rgb(0%,0%,0%);fill-opacity:1;">
  <use xlink:href="#HBD+idQM1-2" x="16.542969" y="339.390625"/>
</g>
<g style="fill:rgb(0%,0%,0%);fill-opacity:1;">
  <use xlink:href="#HBD+idQM4-1" x="15.703125" y="254.289062"/>
</g>
<g style="fill:rgb(0%,0%,0%);fill-opacity:1;">
  <use xlink:href="#HBD+idQM5-1" x="16.542969" y="169.183594"/>
</g>
<g style="fill:rgb(0%,0%,0%);fill-opacity:1;">
  <use xlink:href="#HBD+idQM5-2" x="16.195312" y="84.082031"/>
</g>
<g style="fill:rgb(0%,0%,0%);fill-opacity:1;">
  <use xlink:href="#HBD+idQM6-1" x="297.664062" y="25.667969"/>
</g>
<g style="fill:rgb(0%,0%,0%);fill-opacity:1;">
  <use xlink:href="#HBD+idQM7-1" x="305.632812" y="25.667969"/>
</g>
<g style="fill:rgb(0%,0%,0%);fill-opacity:1;">
  <use xlink:href="#HBD+idQM8-1" x="317.367188" y="25.667969"/>
</g>
<g style="fill:rgb(0%,0%,0%);fill-opacity:1;">
  <use xlink:href="#HBD+idQM9-1" x="294.496094" y="45.269531"/>
</g>
<g style="fill:rgb(0%,0%,0%);fill-opacity:1;">
  <use xlink:href="#HBD+idQM9-2" x="299.222656" y="45.269531"/>
</g>
<g style="fill:rgb(0%,0%,0%);fill-opacity:1;">
  <use xlink:href="#HBD+idQM10-1" x="302.558594" y="45.269531"/>
</g>
<g style="fill:rgb(0%,0%,0%);fill-opacity:1;">
  <use xlink:href="#HBD+idQM9-3" x="309.230469" y="45.269531"/>
</g>
<g style="fill:rgb(0%,0%,0%);fill-opacity:1;">
  <use xlink:href="#HBD+idQM11-1" x="313.898438" y="45.269531"/>
</g>
<g style="fill:rgb(0%,0%,0%);fill-opacity:1;">
  <use xlink:href="#HBD+idQM12-1" x="319.417969" y="38.09375"/>
</g>
<g style="fill:rgb(0%,0%,0%);fill-opacity:1;">
  <use xlink:href="#HBD+idQM10-2" x="323.019531" y="45.269531"/>
</g>
<path style="fill:none;stroke-width:0.64;stroke-linecap:round;stroke-linejoin:miter;stroke:rgb(0%,0%,0%);stroke-opacity:1;stroke-miterlimit:10;" d="M 390.9375 40.947917 L 436.510417 40.947917 " transform="matrix(0.75,0,0,0.75,0,0)"/>
<path style=" stroke:none;fill-rule:nonzero;fill:rgb(0%,44.705883%,69.803923%);fill-opacity:1;" d="M 239.695312 269.933594 C 239.695312 274.433594 232.945312 274.433594 232.945312 269.933594 C 232.945312 265.433594 239.695312 265.433594 239.695312 269.933594 "/>
<path style=" stroke:none;fill-rule:nonzero;fill:rgb(0%,44.705883%,69.803923%);fill-opacity:1;" d="M 404.824219 200.917969 C 404.824219 205.417969 398.074219 205.417969 398.074219 200.917969 C 398.074219 196.417969 404.824219 196.417969 404.824219 200.917969 "/>
<path style=" stroke:none;fill-rule:nonzero;fill:rgb(0%,44.705883%,69.803923%);fill-opacity:1;" d="M 338.121094 281.6875 C 338.121094 286.1875 331.371094 286.1875 331.371094 281.6875 C 331.371094 277.1875 338.121094 277.1875 338.121094 281.6875 "/>
<path style=" stroke:none;fill-rule:nonzero;fill:rgb(0%,44.705883%,69.803923%);fill-opacity:1;" d="M 278.277344 368.957031 C 278.277344 373.457031 271.527344 373.457031 271.527344 368.957031 C 271.527344 364.457031 278.277344 364.457031 278.277344 368.957031 "/>
<path style=" stroke:none;fill-rule:nonzero;fill:rgb(0%,44.705883%,69.803923%);fill-opacity:1;" d="M 192.425781 270.570312 C 192.425781 275.070312 185.675781 275.070312 185.675781 270.570312 C 185.675781 266.070312 192.425781 266.070312 192.425781 270.570312 "/>
<path style=" stroke:none;fill-rule:nonzero;fill:rgb(0%,44.705883%,69.803923%);fill-opacity:1;" d="M 566.011719 304.578125 C 566.011719 309.078125 559.261719 309.078125 559.261719 304.578125 C 559.261719 300.078125 566.011719 300.078125 566.011719 304.578125 "/>
<path style=" stroke:none;fill-rule:nonzero;fill:rgb(0%,44.705883%,69.803923%);fill-opacity:1;" d="M 261.554688 304.949219 C 261.554688 309.449219 254.804688 309.449219 254.804688 304.949219 C 254.804688 300.449219 261.554688 300.449219 261.554688 304.949219 "/>
<path style=" stroke:none;fill-rule:nonzero;fill:rgb(0%,44.705883%,69.803923%);fill-opacity:1;" d="M 204.109375 203.242188 C 204.109375 207.742188 197.359375 207.742188 197.359375 203.242188 C 197.359375 198.742188 204.109375 198.742188 204.109375 203.242188 "/>
<path style=" stroke:none;fill-rule:nonzero;fill:rgb(0%,44.705883%,69.803923%);fill-opacity:1;" d="M 522.371094 339 C 522.371094 343.5 515.621094 343.5 515.621094 339 C 515.621094 334.5 522.371094 334.5 522.371094 339 "/>
<path style=" stroke:none;fill-rule:nonzero;fill:rgb(0%,44.705883%,69.803923%);fill-opacity:1;" d="M 354.644531 210.195312 C 354.644531 214.695312 347.894531 214.695312 347.894531 210.195312 C 347.894531 205.695312 354.644531 205.695312 354.644531 210.195312 "/>
<path style=" stroke:none;fill-rule:nonzero;fill:rgb(0%,44.705883%,69.803923%);fill-opacity:1;" d="M 406.566406 401.113281 C 406.566406 405.613281 399.816406 405.613281 399.816406 401.113281 C 399.816406 396.613281 406.566406 396.613281 406.566406 401.113281 "/>
<path style=" stroke:none;fill-rule:nonzero;fill:rgb(0%,44.705883%,69.803923%);fill-opacity:1;" d="M 89.15625 371.609375 C 89.15625 376.109375 82.40625 376.109375 82.40625 371.609375 C 82.40625 367.109375 89.15625 367.109375 89.15625 371.609375 "/>
<path style=" stroke:none;fill-rule:nonzero;fill:rgb(0%,44.705883%,69.803923%);fill-opacity:1;" d="M 147.417969 184.878906 C 147.417969 189.378906 140.667969 189.378906 140.667969 184.878906 C 140.667969 180.378906 147.417969 180.378906 147.417969 184.878906 "/>
<path style=" stroke:none;fill-rule:nonzero;fill:rgb(0%,44.705883%,69.803923%);fill-opacity:1;" d="M 200.121094 234.578125 C 200.121094 239.078125 193.371094 239.078125 193.371094 234.578125 C 193.371094 230.078125 200.121094 230.078125 200.121094 234.578125 "/>
<path style=" stroke:none;fill-rule:nonzero;fill:rgb(0%,44.705883%,69.803923%);fill-opacity:1;" d="M 374.710938 332.59375 C 374.710938 337.09375 367.960938 337.09375 367.960938 332.59375 C 367.960938 328.09375 374.710938 328.09375 374.710938 332.59375 "/>
<path style=" stroke:none;fill-rule:nonzero;fill:rgb(0%,44.705883%,69.803923%);fill-opacity:1;" d="M 101.203125 351.40625 C 101.203125 355.90625 94.453125 355.90625 94.453125 351.40625 C 94.453125 346.90625 101.203125 346.90625 101.203125 351.40625 "/>
<path style=" stroke:none;fill-rule:nonzero;fill:rgb(0%,44.705883%,69.803923%);fill-opacity:1;" d="M 240.269531 351.210938 C 240.269531 355.710938 233.519531 355.710938 233.519531 351.210938 C 233.519531 346.710938 240.269531 346.710938 240.269531 351.210938 "/>
<path style=" stroke:none;fill-rule:nonzero;fill:rgb(0%,44.705883%,69.803923%);fill-opacity:1;" d="M 226.960938 68.386719 C 226.960938 72.886719 220.210938 72.886719 220.210938 68.386719 C 220.210938 63.886719 226.960938 63.886719 226.960938 68.386719 "/>
<path style=" stroke:none;fill-rule:nonzero;fill:rgb(0%,44.705883%,69.803923%);fill-opacity:1;" d="M 243.949219 301.460938 C 243.949219 305.960938 237.199219 305.960938 237.199219 301.460938 C 237.199219 296.960938 243.949219 296.960938 243.949219 301.460938 "/>
<path style=" stroke:none;fill-rule:nonzero;fill:rgb(0%,44.705883%,69.803923%);fill-opacity:1;" d="M 409.714844 308.886719 C 409.714844 313.386719 402.964844 313.386719 402.964844 308.886719 C 402.964844 304.386719 409.714844 304.386719 409.714844 308.886719 "/>
<path style=" stroke:none;fill-rule:nonzero;fill:rgb(0%,44.705883%,69.803923%);fill-opacity:1;" d="M 449.40625 167.808594 C 449.40625 172.308594 442.65625 172.308594 442.65625 167.808594 C 442.65625 163.308594 449.40625 163.308594 449.40625 167.808594 "/>
<path style=" stroke:none;fill-rule:nonzero;fill:rgb(0%,44.705883%,69.803923%);fill-opacity:1;" d="M 267.835938 270.394531 C 267.835938 274.894531 261.085938 274.894531 261.085938 270.394531 C 261.085938 265.894531 267.835938 265.894531 267.835938 270.394531 "/>
<path style=" stroke:none;fill-rule:nonzero;fill:rgb(0%,44.705883%,69.803923%);fill-opacity:1;" d="M 263.582031 219.566406 C 263.582031 224.066406 256.832031 224.066406 256.832031 219.566406 C 256.832031 215.066406 263.582031 215.066406 263.582031 219.566406 "/>
<path style=" stroke:none;fill-rule:nonzero;fill:rgb(0%,44.705883%,69.803923%);fill-opacity:1;" d="M 267.125 203.203125 C 267.125 207.703125 260.375 207.703125 260.375 203.203125 C 260.375 198.703125 267.125 198.703125 267.125 203.203125 "/>
<path style=" stroke:none;fill-rule:nonzero;fill:rgb(0%,44.705883%,69.803923%);fill-opacity:1;" d="M 287.996094 163.984375 C 287.996094 168.484375 281.246094 168.484375 281.246094 163.984375 C 281.246094 159.484375 287.996094 159.484375 287.996094 163.984375 "/>
<path style=" stroke:none;fill-rule:nonzero;fill:rgb(0%,44.705883%,69.803923%);fill-opacity:1;" d="M 317.082031 381.269531 C 317.082031 385.769531 310.332031 385.769531 310.332031 381.269531 C 310.332031 376.769531 317.082031 376.769531 317.082031 381.269531 "/>
<path style=" stroke:none;fill-rule:nonzero;fill:rgb(0%,44.705883%,69.803923%);fill-opacity:1;" d="M 466.359375 124.136719 C 466.359375 128.636719 459.609375 128.636719 459.609375 124.136719 C 459.609375 119.636719 466.359375 119.636719 466.359375 124.136719 "/>
<path style=" stroke:none;fill-rule:nonzero;fill:rgb(0%,44.705883%,69.803923%);fill-opacity:1;" d="M 241 286.535156 C 241 291.035156 234.25 291.035156 234.25 286.535156 C 234.25 282.035156 241 282.035156 241 286.535156 "/>
<path style=" stroke:none;fill-rule:nonzero;fill:rgb(0%,44.705883%,69.803923%);fill-opacity:1;" d="M 340.855469 226.457031 C 340.855469 230.957031 334.105469 230.957031 334.105469 226.457031 C 334.105469 221.957031 340.855469 221.957031 340.855469 226.457031 "/>
<path style=" stroke:none;fill-rule:nonzero;fill:rgb(0%,44.705883%,69.803923%);fill-opacity:1;" d="M 418.308594 276.535156 C 418.308594 281.035156 411.558594 281.035156 411.558594 276.535156 C 411.558594 272.035156 418.308594 272.035156 418.308594 276.535156 "/>
<path style=" stroke:none;fill-rule:nonzero;fill:rgb(0%,44.705883%,69.803923%);fill-opacity:1;" d="M 388.613281 308.570312 C 388.613281 313.070312 381.863281 313.070312 381.863281 308.570312 C 381.863281 304.070312 388.613281 304.070312 388.613281 308.570312 "/>
<path style=" stroke:none;fill-rule:nonzero;fill:rgb(0%,44.705883%,69.803923%);fill-opacity:1;" d="M 415.3125 249.28125 C 415.3125 253.78125 408.5625 253.78125 408.5625 249.28125 C 408.5625 244.78125 415.3125 244.78125 415.3125 249.28125 "/>
<path style=" stroke:none;fill-rule:nonzero;fill:rgb(0%,44.705883%,69.803923%);fill-opacity:1;" d="M 448.378906 311.4375 C 448.378906 315.9375 441.628906 315.9375 441.628906 311.4375 C 441.628906 306.9375 448.378906 306.9375 448.378906 311.4375 "/>
<path style=" stroke:none;fill-rule:nonzero;fill:rgb(0%,44.705883%,69.803923%);fill-opacity:1;" d="M 188.914062 180.058594 C 188.914062 184.558594 182.164062 184.558594 182.164062 180.058594 C 182.164062 175.558594 188.914062 175.558594 188.914062 180.058594 "/>
<path style=" stroke:none;fill-rule:nonzero;fill:rgb(0%,44.705883%,69.803923%);fill-opacity:1;" d="M 279.929688 237.425781 C 279.929688 241.925781 273.179688 241.925781 273.179688 237.425781 C 273.179688 232.925781 279.929688 232.925781 279.929688 237.425781 "/>
<path style=" stroke:none;fill-rule:nonzero;fill:rgb(0%,44.705883%,69.803923%);fill-opacity:1;" d="M 313.414062 331.894531 C 313.414062 336.394531 306.664062 336.394531 306.664062 331.894531 C 306.664062 327.394531 313.414062 327.394531 313.414062 331.894531 "/>
<path style=" stroke:none;fill-rule:nonzero;fill:rgb(0%,44.705883%,69.803923%);fill-opacity:1;" d="M 278.371094 323.546875 C 278.371094 328.046875 271.621094 328.046875 271.621094 323.546875 C 271.621094 319.046875 278.371094 319.046875 278.371094 323.546875 "/>
<path style=" stroke:none;fill-rule:nonzero;fill:rgb(0%,44.705883%,69.803923%);fill-opacity:1;" d="M 451.109375 231.953125 C 451.109375 236.453125 444.359375 236.453125 444.359375 231.953125 C 444.359375 227.453125 451.109375 227.453125 451.109375 231.953125 "/>
<path style=" stroke:none;fill-rule:nonzero;fill:rgb(0%,44.705883%,69.803923%);fill-opacity:1;" d="M 81.839844 202.40625 C 81.839844 206.90625 75.089844 206.90625 75.089844 202.40625 C 75.089844 197.90625 81.839844 197.90625 81.839844 202.40625 "/>
<path style=" stroke:none;fill-rule:nonzero;fill:rgb(0%,44.705883%,69.803923%);fill-opacity:1;" d="M 392.746094 266.566406 C 392.746094 271.066406 385.996094 271.066406 385.996094 266.566406 C 385.996094 262.066406 392.746094 262.066406 392.746094 266.566406 "/>
<path style=" stroke:none;fill-rule:nonzero;fill:rgb(0%,44.705883%,69.803923%);fill-opacity:1;" d="M 267.714844 291.84375 C 267.714844 296.34375 260.964844 296.34375 260.964844 291.84375 C 260.964844 287.34375 267.714844 287.34375 267.714844 291.84375 "/>
<path style=" stroke:none;fill-rule:nonzero;fill:rgb(0%,44.705883%,69.803923%);fill-opacity:1;" d="M 296.472656 305.101562 C 296.472656 309.601562 289.722656 309.601562 289.722656 305.101562 C 289.722656 300.601562 296.472656 300.601562 296.472656 305.101562 "/>
<path style=" stroke:none;fill-rule:nonzero;fill:rgb(0%,44.705883%,69.803923%);fill-opacity:1;" d="M 450.476562 233.242188 C 450.476562 237.742188 443.726562 237.742188 443.726562 233.242188 C 443.726562 228.742188 450.476562 228.742188 450.476562 233.242188 "/>
<path style=" stroke:none;fill-rule:nonzero;fill:rgb(0%,44.705883%,69.803923%);fill-opacity:1;" d="M 445.527344 322.171875 C 445.527344 326.671875 438.777344 326.671875 438.777344 322.171875 C 438.777344 317.671875 445.527344 317.671875 445.527344 322.171875 "/>
<path style=" stroke:none;fill-rule:nonzero;fill:rgb(0%,44.705883%,69.803923%);fill-opacity:1;" d="M 553.765625 326.609375 C 553.765625 331.109375 547.015625 331.109375 547.015625 326.609375 C 547.015625 322.109375 553.765625 322.109375 553.765625 326.609375 "/>
<path style=" stroke:none;fill-rule:nonzero;fill:rgb(0%,44.705883%,69.803923%);fill-opacity:1;" d="M 58.738281 158.484375 C 58.738281 162.984375 51.988281 162.984375 51.988281 158.484375 C 51.988281 153.984375 58.738281 153.984375 58.738281 158.484375 "/>
<path style=" stroke:none;fill-rule:nonzero;fill:rgb(0%,44.705883%,69.803923%);fill-opacity:1;" d="M 260.160156 303.910156 C 260.160156 308.410156 253.410156 308.410156 253.410156 303.910156 C 253.410156 299.410156 260.160156 299.410156 260.160156 303.910156 "/>
<path style=" stroke:none;fill-rule:nonzero;fill:rgb(0%,44.705883%,69.803923%);fill-opacity:1;" d="M 150.878906 354.558594 C 150.878906 359.058594 144.128906 359.058594 144.128906 354.558594 C 144.128906 350.058594 150.878906 350.058594 150.878906 354.558594 "/>
<path style=" stroke:none;fill-rule:nonzero;fill:rgb(0%,44.705883%,69.803923%);fill-opacity:1;" d="M 284.449219 278.019531 C 284.449219 282.519531 277.699219 282.519531 277.699219 278.019531 C 277.699219 273.519531 284.449219 273.519531 284.449219 278.019531 "/>
<path style=" stroke:none;fill-rule:nonzero;fill:rgb(0%,44.705883%,69.803923%);fill-opacity:1;" d="M 207.4375 250.390625 C 207.4375 254.890625 200.6875 254.890625 200.6875 250.390625 C 200.6875 245.890625 207.4375 245.890625 207.4375 250.390625 "/>
<path style="fill:none;stroke-width:1;stroke-linecap:butt;stroke-linejoin:miter;stroke:rgb(0%,0%,0%);stroke-opacity:1;stroke-miterlimit:10;" d="M 40.96875 557.5 L 40.96875 563.5 " transform="matrix(0.75,0,0,0.75,0,0)"/>
<path style="fill:none;stroke-width:1;stroke-linecap:butt;stroke-linejoin:miter;stroke:rgb(0%,0%,0%);stroke-opacity:1;stroke-miterlimit:10;" d="M 201.651042 557.5 L 201.651042 563.5 " transform="matrix(0.75,0,0,0.75,0,0)"/>
<path style="fill:none;stroke-width:1;stroke-linecap:butt;stroke-linejoin:miter;stroke:rgb(0%,0%,0%);stroke-opacity:1;stroke-miterlimit:10;" d="M 362.333333 557.5 L 362.333333 563.5 " transform="matrix(0.75,0,0,0.75,0,0)"/>
<path style="fill:none;stroke-width:1;stroke-linecap:butt;stroke-linejoin:miter;stroke:rgb(0%,0%,0%);stroke-opacity:1;stroke-miterlimit:10;" d="M 523.015625 557.5 L 523.015625 563.5 " transform="matrix(0.75,0,0,0.75,0,0)"/>
<path style="fill:none;stroke-width:1;stroke-linecap:butt;stroke-linejoin:miter;stroke:rgb(0%,0%,0%);stroke-opacity:1;stroke-miterlimit:10;" d="M 683.697917 557.5 L 683.697917 563.5 " transform="matrix(0.75,0,0,0.75,0,0)"/>
<path style="fill:none;stroke-width:1;stroke-linecap:butt;stroke-linejoin:miter;stroke:rgb(0%,0%,0%);stroke-opacity:1;stroke-miterlimit:10;" d="M 39.5 446.979167 L 33.5 446.979167 " transform="matrix(0.75,0,0,0.75,0,0)"/>
<path style="fill:none;stroke-width:1;stroke-linecap:butt;stroke-linejoin:miter;stroke:rgb(0%,0%,0%);stroke-opacity:1;stroke-miterlimit:10;" d="M 39.5 333.510417 L 33.5 333.510417 " transform="matrix(0.75,0,0,0.75,0,0)"/>
<path style="fill:none;stroke-width:1;stroke-linecap:butt;stroke-linejoin:miter;stroke:rgb(0%,0%,0%);stroke-opacity:1;stroke-miterlimit:10;" d="M 39.5 220.041667 L 33.5 220.041667 " transform="matrix(0.75,0,0,0.75,0,0)"/>
<path style="fill:none;stroke-width:1;stroke-linecap:butt;stroke-linejoin:miter;stroke:rgb(0%,0%,0%);stroke-opacity:1;stroke-miterlimit:10;" d="M 39.5 106.567708 L 33.5 106.567708 " transform="matrix(0.75,0,0,0.75,0,0)"/>
<path style="fill:none;stroke-width:1;stroke-linecap:butt;stroke-linejoin:miter;stroke:rgb(0%,0%,0%);stroke-opacity:1;stroke-miterlimit:10;" d="M 39.5 557 L 784.5 557 " transform="matrix(0.75,0,0,0.75,0,0)"/>
<path style="fill:none;stroke-width:1;stroke-linecap:butt;stroke-linejoin:miter;stroke:rgb(0%,0%,0%);stroke-opacity:1;stroke-miterlimit:10;" d="M 40 557.5 L 40 68.5 " transform="matrix(0.75,0,0,0.75,0,0)"/>
<path style="fill:none;stroke-width:1;stroke-linecap:butt;stroke-linejoin:miter;stroke:rgb(0%,0%,0%);stroke-opacity:1;stroke-miterlimit:10;" d="M 39.5 69 L 784.5 69 " transform="matrix(0.75,0,0,0.75,0,0)"/>
<path style="fill:none;stroke-width:1;stroke-linecap:butt;stroke-linejoin:miter;stroke:rgb(0%,0%,0%);stroke-opacity:1;stroke-miterlimit:10;" d="M 784 557.5 L 784 68.5 " transform="matrix(0.75,0,0,0.75,0,0)"/>
</g>
</svg>
